<svg xmlns="http://www.w3.org/2000/svg" version="1.1" xmlns:xlink="http://www.w3.org/1999/xlink" xmlns:svgjs="http://svgjs.dev/svgjs" viewBox="0 0 800 800" opacity="1"><g stroke-width="1.5" stroke="#f5e8c7" fill="none" stroke-linecap="round"><path d="M397.64 95.65C407.45 97.19 417.7 99.85 428.37 103.51 439.09 107.66 450.28 112.58 461.92 118.12 473.63 123.79 485.8 129.83 498.36 136.12 510.98 142.17 523.93 148.27 537.09 154.33 550.15 159.89 563.22 165.31 576.1 170.55 588.53 175.19 600.43 179.64 611.48 183.94 621.61 187.67 630.45 191.32 637.7 194.94 645.48 199.78 648.4 209.77 643.45 215.28 638.45 218.96 632.01 223.06 624.59 227.6 617.5 232.16 610.58 237.2 604.52 242.73 600.59 248.33 598.75 254.42 599.57 260.97 603.79 267.62 611.18 274.69 621.75 282.15 635.39 289.69 651.38 297.58 668.95 305.76 687.32 313.99 705.26 322.47 721.55 331.18 735.4 339.9 745.52 348.81 751.04 357.88 751.94 366.96 747.71 376 738.82 384.98 726.3 393.98 710.68 402.98 693.09 411.98 674.77 421.06 656.6 430.23 639.59 439.52 624.64 448.99 612.22 458.68 602.69 468.65 596.45 478.91 593.18 489.56 592.57 500.62 594.72 512.06 598.62 524 603.66 536.42 609.94 549.22 616.2 562.49 621.86 576.15 627.27 590.03 631.26 604.13 633.57 618.28 634.74 632.28 633.94 646.01 631.22 659.17 627.17 671.64 621.35 683.11 614 693.27 605.59 702.13 595.99 709.23 585.49 714.33 574.35 717.7 562.66 718.84 550.65 717.65 538.37 714.77 526.03 709.72 513.78 702.67 501.47 694.57 489.38 685.09 477.62 674.63 465.88 664.31 454.5 653.95 443.52 644.04 432.57 635.67 422.01 628.65 411.86 623.38 401.7 620.64 392.14 620.07 383.14 621.59 374.08 625.52 365.52 631.1 357.42 637.95 349.19 646.28 341.35 655.06 333.82 663.83 326.08 672.83 318.57 680.98 311.22 687.93 303.56 694.04 295.95 698.4 288.32 700.86 280.29 701.89 272.15 700.86 263.85 697.84 255.12 693.33 246.19 687 237.09 679.06 227.62 669.94 218.04 659.56 208.41 648.18 198.65 636.1 189.01 623.37 179.66 610.26 170.49 596.87 161.85 583.37 153.87 569.93 146.45 556.5 139.9 543.3 134.36 530.4 129.56 517.68 125.83 505.31 123.2 493.33 121.23 481.55 120.23 470.14 120.11 459.1 120.28 448.22 121.03 437.64 122.24 427.36 123.2 417.18 124.27 407.23 125.31 397.52 125.67 387.84 125.79 378.35 125.62 369.06 124.64 359.78 123.46 350.88 122.19 342.39 120.42 333.89 118.87 325.78 117.69 318.09 116.54 310.39 116.12 303.11 116.52 296.26 117.45 289.4 119.44 282.98 122.52 276.99 126.34 270.98 131.27 265.38 137.23 260.2 143.84 254.92 151.3 250 159.47 245.42 167.97 240.64 176.91 236.12 186.14 231.79 195.31 227.14 204.54 222.59 213.71 218.09 222.53 213.14 231.16 208.14 239.59 203.03 247.51 197.4 255.22 191.61 262.75 185.66 269.78 179.19 276.71 172.56 283.61 165.83 290.11 158.7 296.7 151.56 303.44 144.53 309.91 137.34 316.64 130.43 323.69 123.93 330.57 117.62 337.85 111.94 345.58 107.04 353.21 102.64 361.33 99.22 370 96.89 378.61 95.27 387.81 94.84 397.63 95.65" stroke-dasharray="6 4" transform="rotate(0, 400, 400)" opacity="1.00"></path><path d="M409.14 105.8C418.85 107.33 428.95 109.96 439.43 113.55 449.95 117.61 460.87 122.44 472.15 127.9 483.47 133.49 495.12 139.48 507.04 145.74 518.92 151.8 530.96 157.95 543.01 164.07 554.84 169.77 566.47 175.34 577.69 180.75 588.36 185.61 598.31 190.3 607.24 194.82 618.55 200.73 631.67 211.56 632.69 216.78 630.02 221.71 615.72 232.59 605.98 238.79 597.26 245.34 587.98 260.66 590.44 269.46 596.03 275.52 604.48 282.02 615.69 288.91 629.5 295.84 645.25 303.14 662.18 310.79 679.63 318.45 696.47 326.43 711.65 334.68 724.5 342.94 733.87 351.46 739.01 360.24 739.95 369.01 736.19 377.83 728.12 386.69 716.69 395.58 702.28 404.56 685.88 413.62 668.61 422.78 651.19 432.09 634.56 441.6 619.55 451.26 606.61 461.21 596.15 471.46 588.56 481.96 583.66 492.84 581.27 504.12 581.52 515.7 583.62 527.7 587.04 540.11 591.93 552.77 597.16 565.77 602.21 579.02 607.41 592.34 611.64 605.73 614.6 619 616.8 631.99 617.37 644.54 616.26 656.41 614.07 667.52 610.23 677.55 604.88 686.23 598.57 693.65 591 699.37 582.41 703.18 573.16 705.43 563.18 705.61 552.69 703.69 541.85 700.29 530.75 694.98 519.55 687.92 508.22 680.01 496.94 670.93 485.82 661.03 474.69 651.36 463.78 641.69 453.15 632.49 442.55 624.72 432.22 618.18 422.22 613.23 412.21 610.58 402.72 609.9 393.71 611.1 384.65 614.51 376.01 619.44 367.75 625.56 359.37 633.11 351.29 641.14 343.45 649.25 335.41 657.7 327.52 665.49 319.72 672.3 311.63 678.48 303.54 683.16 295.4 686.17 286.9 687.99 278.27 687.95 269.51 686.09 260.38 682.9 251.1 677.99 241.71 671.51 232.06 663.92 222.37 655.04 212.74 645.11 203.09 634.42 193.67 623 184.61 611.06 175.86 598.74 167.69 586.17 160.25 573.52 153.4 560.79 147.46 548.13 142.53 535.68 138.33 523.3 135.16 511.19 133.06 499.41 131.56 487.76 130.96 476.43 131.19 465.46 131.65 454.61 132.63 444.07 134 433.85 135.09 423.71 136.24 413.85 137.33 404.26 137.72 394.71 137.84 385.39 137.65 376.33 136.64 367.27 135.4 358.64 134.04 350.46 132.16 342.26 130.46 334.48 129.08 327.14 127.71 319.77 126.99 312.83 127.04 306.32 127.58 299.77 129.12 293.63 131.7 287.91 135.01 282.12 139.41 276.72 144.83 271.67 150.93 266.5 157.91 261.63 165.65 257.03 173.81 252.21 182.49 247.58 191.53 243.09 200.64 238.28 209.9 233.51 219.19 228.74 228.25 223.54 237.19 218.26 245.99 212.87 254.37 206.99 262.56 200.95 270.58 194.77 278.15 188.12 285.59 181.34 292.96 174.5 299.94 167.32 306.95 160.18 314.04 153.18 320.85 146.07 327.84 139.28 335.09 132.93 342.15 126.78 349.54 121.28 357.32 116.55 364.99 112.33 373.12 109.06 381.74 106.85 390.31 105.34 399.43 104.97 409.13 105.79" stroke-dasharray="1 5" transform="rotate(4.04, 400, 400)" opacity="0.96"></path><path d="M419.85 115.94C429.4 117.47 439.28 120.05 449.45 123.55 459.64 127.53 470.13 132.26 480.86 137.6 491.6 143.11 502.52 149.02 513.55 155.21 524.47 161.27 535.37 167.42 546.09 173.6 556.52 179.39 566.56 185.1 576 190.67 584.87 195.74 592.86 200.64 599.75 205.39 611.92 217.41 610.87 233.66 604.36 239.08 599.42 242.56 593.91 246.33 588.26 250.42 581.61 256.6 577.35 270.89 582.13 279.05 588.91 284.64 598.21 290.65 609.87 297.06 623.71 303.49 639.08 310.3 655.32 317.47 671.8 324.66 687.56 332.19 701.65 340.05 713.54 347.9 722.21 356.08 726.98 364.58 727.95 373.08 724.62 381.7 717.33 390.45 706.94 399.22 693.71 408.15 678.49 417.25 662.29 426.42 645.72 435.82 629.59 445.45 614.69 455.22 601.45 465.3 590.27 475.69 581.57 486.27 575.26 497.22 571.25 508.53 569.71 520.04 570.02 531.91 571.77 544.08 575.11 556.4 579.09 568.93 583.23 581.58 587.84 594.16 591.88 606.67 595.04 618.92 597.81 630.78 599.27 642.09 599.34 652.62 598.6 662.35 596.38 670.96 592.76 678.22 588.31 684.28 582.61 688.72 575.83 691.36 568.42 692.6 560.16 691.96 551.24 689.43 541.94 685.64 532.21 680.16 522.2 673.17 512.01 665.51 501.7 656.85 491.38 647.53 481.01 638.5 470.72 629.52 460.56 620.99 450.41 613.8 440.42 607.73 430.63 603.08 420.84 600.53 411.45 599.74 402.43 600.65 393.38 603.58 384.65 607.89 376.21 613.33 367.66 620.11 359.33 627.4 351.16 634.85 342.8 642.72 334.54 650.09 326.3 656.66 317.82 662.8 309.29 667.67 300.69 671.1 291.8 673.55 282.79 674.34 273.66 673.49 264.27 671.47 254.78 667.85 245.24 662.74 235.57 656.59 225.94 649.17 216.45 640.66 207.07 631.4 198 621.32 189.38 610.62 181.15 599.49 173.55 587.98 166.73 576.27 160.53 564.38 155.25 552.45 150.96 540.61 147.37 528.77 144.78 517.09 143.19 505.67 142.14 494.31 141.93 483.23 142.48 472.46 143.19 461.78 144.36 451.39 145.86 441.31 147.05 431.31 148.26 421.58 149.37 412.16 149.78 402.76 149.89 393.63 149.68 384.78 148.64 375.93 147.36 367.55 145.93 359.62 143.98 351.68 142.15 344.17 140.61 337.1 139.02 329.99 138.03 323.3 137.76 317.02 137.91 310.69 139.01 304.75 141.1 299.18 143.88 293.52 147.71 288.2 152.55 283.2 158.08 278.04 164.52 273.13 171.74 268.43 179.45 263.5 187.75 258.7 196.49 254.01 205.41 248.97 214.56 243.95 223.84 238.91 233 233.44 242.13 227.88 251.18 222.22 259.92 216.1 268.51 209.84 276.95 203.46 285.01 196.66 292.94 189.78 300.78 182.87 308.26 175.69 315.72 168.58 323.21 161.64 330.43 154.66 337.76 148.02 345.28 141.83 352.6 135.88 360.2 130.57 368.1 126.03 375.9 122 384.08 118.9 392.68 116.81 401.24 115.41 410.28 115.1 419.84 115.94" stroke-dasharray="6 3" transform="rotate(8.08, 400, 400)" opacity="0.92"></path><path d="M428.81 126.09C438.16 127.61 447.72 130.12 457.46 133.54 467.21 137.41 477.13 142.02 487.15 147.23 497.14 152.63 507.17 158.44 517.13 164.55 526.95 170.56 536.57 176.71 545.84 182.9 554.78 188.77 563.18 194.58 570.86 200.29 577.96 205.54 584.12 210.65 589.15 215.61 594.87 222.28 598.25 234.46 595.84 240.2 591.38 245.48 578.35 256.41 571.62 262.3 567.18 268.28 567.76 281.85 574.61 289.54 582.37 294.77 592.32 300.4 604.25 306.42 617.97 312.43 632.87 318.84 648.34 325.63 663.85 332.4 678.54 339.56 691.57 347.07 702.54 354.58 710.52 362.46 714.95 370.7 715.95 378.95 713.02 387.38 706.47 395.99 697.05 404.63 684.96 413.49 670.92 422.55 655.81 431.69 640.14 441.08 624.64 450.73 610.02 460.5 596.66 470.57 584.99 480.94 575.41 491.46 567.9 502.31 562.46 513.44 559.28 524.72 557.88 536.26 557.97 548 559.7 559.78 562.25 571.67 565.25 583.53 568.96 595.24 572.45 606.74 575.41 617.86 578.29 628.52 580.21 638.55 581.02 647.72 580.79 659.71 573.11 675.67 565.9 678.91 560.17 679.27 553.54 677.93 546.15 674.91 538.38 670.83 530.05 665.28 521.28 658.42 512.32 651.06 503.08 642.86 493.66 634.12 484.17 625.73 474.6 617.42 465.02 609.54 455.43 602.91 445.86 597.28 436.36 592.93 426.85 590.48 417.62 589.6 408.64 590.24 399.64 592.72 390.85 596.46 382.26 601.23 373.57 607.29 365.02 613.85 356.55 620.63 347.94 627.89 339.35 634.79 330.74 641.06 321.95 647.06 313.08 652 304.14 655.71 294.98 658.63 285.72 660.1 276.39 660.11 266.89 659.11 257.36 656.63 247.84 652.77 238.31 647.96 228.9 641.91 219.73 634.79 210.76 626.92 202.18 618.19 194.12 608.78 186.5 598.89 179.57 588.53 173.44 577.86 167.93 566.95 163.34 555.89 159.7 544.81 156.73 533.66 154.71 522.58 153.61 511.66 153 500.76 153.15 490.06 153.97 479.62 154.9 469.23 156.23 459.11 157.83 449.27 159.09 439.48 160.33 429.97 161.44 420.75 161.84 411.55 161.94 402.63 161.71 394 160.65 385.36 159.35 377.2 157.87 369.49 155.86 361.76 153.94 354.47 152.26 347.6 150.49 340.68 149.26 334.17 148.69 328.05 148.48 321.85 149.15 316.02 150.75 310.52 152.99 304.91 156.24 299.59 160.47 294.54 165.38 289.32 171.21 284.3 177.85 279.45 185.01 274.35 192.82 269.34 201.14 264.4 209.72 259.12 218.63 253.83 227.75 248.5 236.87 242.78 246.04 236.96 255.2 231.04 264.16 224.71 273.03 218.26 281.79 211.72 290.25 204.82 298.6 197.88 306.84 190.94 314.78 183.79 322.67 176.76 330.55 169.93 338.18 163.1 345.88 156.64 353.68 150.65 361.31 144.91 369.13 139.83 377.18 135.49 385.13 131.66 393.38 128.73 401.97 126.78 410.52 125.48 419.45 125.24 428.8 126.09" stroke-dasharray="4 5" transform="rotate(12.12, 400, 400)" opacity="0.89"></path><path d="M435.25 136.24C444.32 137.74 453.47 140.18 462.69 143.5 471.9 147.26 481.13 151.73 490.33 156.8 499.47 162.06 508.49 167.75 517.29 173.75 525.93 179.69 534.21 185.79 542.02 191.97 549.49 197.88 556.3 203.77 562.32 209.58 570.09 217.64 579.38 232.47 580.55 239.28 579.63 245.4 572.05 257.04 566.37 262.79 561.07 268.31 554.07 280.14 554.34 286.64 556.96 290.97 561.4 295.64 567.8 300.67 576.34 305.64 586.74 310.99 598.78 316.72 612.24 322.41 626.58 328.5 641.24 334.96 655.77 341.41 669.39 348.25 681.4 355.47 691.49 362.68 698.83 370.29 702.93 378.29 703.93 386.3 701.38 394.54 695.52 402.99 687.04 411.47 676.04 420.2 663.15 429.17 649.14 438.19 634.43 447.48 619.65 457.04 605.44 466.68 592.17 476.61 580.22 486.81 569.98 497.11 561.51 507.68 554.86 518.47 550.22 529.33 547.25 540.37 545.74 551.5 545.84 562.6 546.91 573.68 548.61 584.63 551.18 595.34 553.83 605.75 556.25 615.67 558.85 625.1 560.8 633.83 561.93 641.67 560.45 657.88 546.13 664.53 537.54 660.18 531.21 655.92 524.21 650.38 516.67 643.72 508.94 636.7 500.78 628.98 492.32 620.83 483.77 613.06 474.99 605.4 466.06 598.15 457.1 592.05 448.04 586.85 438.89 582.78 429.75 580.43 420.74 579.47 411.87 579.87 402.99 581.94 394.21 585.14 385.53 589.29 376.78 594.64 368.08 600.51 359.41 606.61 350.62 613.25 341.82 619.64 332.97 625.54 323.98 631.32 314.91 636.22 305.78 640.08 296.52 643.34 287.19 645.33 277.82 646.04 268.4 645.9 259 644.42 249.7 641.67 240.48 638.07 231.46 633.3 222.76 627.47 214.33 620.94 206.36 613.54 198.97 605.41 192.06 596.79 185.86 587.62 180.47 578.06 175.69 568.22 171.79 558.13 168.82 547.92 166.46 537.59 164.98 527.23 164.35 516.95 164.13 506.64 164.6 496.46 165.67 486.47 166.78 476.5 168.23 466.74 169.89 457.23 171.18 447.75 172.43 438.52 173.52 429.55 173.91 420.61 173.99 411.92 173.73 403.51 172.67 395.1 171.35 387.15 169.84 379.63 167.8 372.09 165.82 364.96 164.03 358.24 162.12 351.47 160.68 345.07 159.83 339.03 159.42 330.01 163.71 313.29 168.66 305.44 172.92 300.1 178.09 294.92 184.07 289.87 190.61 284.57 197.83 279.33 205.62 274.12 213.74 268.6 222.27 263.05 231.08 257.44 239.99 251.48 249.04 245.43 258.15 239.29 267.18 232.78 276.17 226.19 285.1 219.54 293.83 212.59 302.46 205.63 311 198.71 319.32 191.65 327.56 184.73 335.76 178.05 343.76 171.42 351.78 165.16 359.83 159.39 367.75 153.9 375.78 149.05 383.95 144.93 392.04 141.31 400.34 138.55 408.88 136.74 417.38 135.56 426.16 135.38 435.23 136.24" stroke-dasharray="9 1" transform="rotate(16.16, 400, 400)" opacity="0.85"></path><path d="M438.59 146.39C447.31 147.86 455.99 150.24 464.59 153.44 473.18 157.07 481.66 161.39 489.96 166.3 498.19 171.41 506.16 176.95 513.79 182.81 521.24 188.66 528.23 194.69 534.64 200.82 540.73 206.74 546.12 212.66 550.68 218.54 556.39 226.8 562.15 242.21 562.08 249.37 560.48 255.87 553.28 268.2 548.71 274.22 545.07 279.96 542.33 291.98 544.83 298.44 548.76 302.71 554.35 307.27 561.64 312.16 570.77 316.97 581.44 322.13 593.42 327.64 606.51 333.1 620.2 338.94 634 345.16 647.54 351.34 660.13 357.92 671.15 364.89 680.39 371.84 687.12 379.2 690.9 386.97 691.91 394.75 689.7 402.78 684.49 411.04 676.89 419.32 666.95 427.86 655.18 436.65 642.27 445.48 628.55 454.58 614.58 463.92 600.92 473.32 587.89 482.98 575.86 492.86 565.21 502.79 556.01 512.93 548.36 523.21 542.47 533.51 538.1 543.89 535.11 554.27 533.66 564.55 533.22 574.71 533.54 584.64 534.84 594.29 536.42 603.54 538.03 612.25 540.02 620.44 541.64 627.89 542.72 634.44 537.61 648.64 517.81 638.19 508.52 629.06 501.93 622.42 494.84 615.2 487.31 607.64 479.7 600.49 471.74 593.46 463.5 586.8 455.23 581.21 446.73 576.43 438.01 572.63 429.3 570.38 420.6 569.36 411.93 569.54 403.24 571.23 394.57 573.93 385.9 577.49 377.2 582.18 368.47 587.36 359.72 592.8 350.89 598.81 342.01 604.66 333.07 610.15 324.05 615.62 314.96 620.39 305.82 624.29 296.64 627.74 287.42 630.12 278.22 631.36 269.06 631.92 259.98 631.29 251.06 629.5 242.32 626.98 233.85 623.35 225.75 618.72 218 613.45 210.75 607.31 204.11 600.42 197.97 593.05 192.55 585.09 187.92 576.67 183.89 567.94 180.69 558.89 178.37 549.63 176.59 540.21 175.61 530.68 175.42 521.14 175.55 511.54 176.3 501.99 177.56 492.55 178.81 483.1 180.34 473.81 182.04 464.71 183.34 455.62 184.56 446.73 185.62 438.08 185.99 429.44 186.04 421.02 185.76 412.85 184.7 404.68 183.38 396.93 181.86 389.59 179.81 382.23 177.79 375.24 175.92 368.63 173.89 361.96 172.29 355.63 171.2 349.62 170.29 340.62 173.14 323.71 177.17 315.67 180.77 310.18 185.25 304.81 190.53 299.54 196.38 294.03 202.93 288.55 210.09 283.09 217.63 277.33 225.64 271.53 234 265.68 242.55 259.51 251.32 253.27 260.21 246.95 269.12 240.32 278.07 233.64 287 226.92 295.83 219.97 304.6 213.05 313.29 206.21 321.84 199.27 330.32 192.51 338.73 186.02 346.99 179.61 355.24 173.6 363.47 168.07 371.6 162.85 379.77 158.24 388 154.36 396.18 150.96 404.47 148.38 412.89 146.71 421.29 145.64 429.85 145.52 438.58 146.39" stroke-dasharray="9 5" transform="rotate(20.200000000000003, 400, 400)" opacity="0.81"></path><path d="M438.54 156.54C446.85 157.98 454.99 160.27 462.94 163.36 470.86 166.85 478.55 171.01 485.94 175.74 493.26 180.68 500.2 186.05 506.71 191.75 513.04 197.47 518.83 203.39 524 209.44 528.9 215.32 533.06 221.25 536.43 227.16 540.53 235.56 543.84 251.46 543.11 258.92 541.39 265.78 535.51 278.83 532.37 285.16 530.54 291.18 531.99 303.54 536.49 310.06 541.55 314.34 548.07 318.88 556.05 323.7 565.56 328.43 576.33 333.47 588.11 338.84 600.71 344.15 613.7 349.81 626.61 355.82 639.16 361.81 650.73 368.17 660.82 374.91 669.25 381.64 675.39 388.77 678.87 396.31 679.88 403.85 677.99 411.64 673.38 419.67 666.61 427.71 657.67 436.01 646.99 444.53 635.18 453.09 622.48 461.89 609.37 470.9 596.37 479.95 583.73 489.21 571.82 498.63 560.97 508.07 551.27 517.64 542.88 527.29 535.96 536.89 530.4 546.49 526.09 556.01 523.19 565.37 521.32 574.54 520.26 583.39 520.21 591.93 520.6 600.01 521.21 607.49 520.31 633.65 505.06 623.24 497.26 614.48 491.69 608.25 485.56 601.54 478.92 594.57 472.2 588.01 465.04 581.59 457.5 575.51 449.93 570.41 442.02 566.01 433.8 562.48 425.58 560.34 417.26 559.27 408.87 559.25 400.49 560.59 392.02 562.83 383.5 565.85 374.96 569.9 366.35 574.42 357.66 579.23 348.95 584.6 340.16 589.89 331.31 594.92 322.44 600.03 313.52 604.58 304.57 608.41 295.64 611.94 286.73 614.56 277.9 616.21 269.17 617.31 260.59 617.36 252.23 616.38 244.11 614.78 236.32 612.16 228.96 608.61 221.97 604.48 215.52 599.51 209.69 593.8 204.36 587.63 199.74 580.85 195.9 573.56 192.59 565.96 190.08 557.97 188.37 549.71 187.13 541.26 186.62 532.62 186.82 523.89 187.26 515.08 188.23 506.24 189.65 497.43 191 488.61 192.57 479.86 194.26 471.23 195.54 462.62 196.73 454.14 197.73 445.85 198.07 437.56 198.09 429.46 197.79 421.55 196.74 413.64 195.42 406.11 193.91 398.93 191.87 391.74 189.84 384.88 187.92 378.35 185.82 371.77 184.07 365.48 182.78 359.47 181.44 350.44 182.94 333.27 186.07 324.99 189.01 319.35 192.78 313.79 197.34 308.3 202.45 302.58 208.27 296.88 214.71 291.18 221.58 285.21 228.95 279.21 236.73 273.16 244.77 266.83 253.09 260.45 261.6 254.01 270.22 247.32 278.94 240.6 287.69 233.88 296.43 226.99 305.16 220.16 313.84 213.44 322.45 206.67 331 200.12 339.48 193.85 347.87 187.7 356.21 181.96 364.5 176.71 372.73 171.76 380.94 167.42 389.14 163.78 397.31 160.6 405.51 158.22 413.74 156.69 421.95 155.72 430.22 155.66 438.53 156.54" stroke-dasharray="3 3" transform="rotate(24.24, 400, 400)" opacity="0.77"></path><path d="M435.12 166.69C442.95 168.09 450.51 170.3 457.78 173.26 465.02 176.61 471.92 180.59 478.44 185.12 484.89 189.87 490.89 195.05 496.38 200.57 501.73 206.12 506.5 211.9 510.63 217.84 514.54 223.65 517.76 229.54 520.23 235.44 523.2 243.92 525.11 260.17 524.27 267.9 522.9 275.09 519.09 288.81 517.58 295.46 517.62 301.79 523 314.61 529.27 321.26 535.25 325.61 542.49 330.18 550.96 334.99 560.67 339.7 571.36 344.68 582.81 349.96 594.84 355.17 607.06 360.7 619.06 366.56 630.63 372.39 641.22 378.57 650.4 385.1 658.07 391.63 663.65 398.53 666.85 405.82 667.85 413.12 666.25 420.65 662.2 428.39 656.21 436.15 648.22 444.14 638.59 452.33 627.86 460.54 616.19 468.95 604 477.53 591.75 486.12 579.64 494.86 568.01 503.71 557.16 512.54 547.2 521.44 538.28 530.33 530.59 539.15 524.04 547.88 518.62 556.46 514.44 564.85 511.24 572.97 508.86 580.72 507.48 588.14 506.63 595.06 506.13 601.37 502.9 620.41 490.17 608.3 483.57 600 478.84 594.19 473.53 588 467.68 581.61 461.76 575.64 455.35 569.8 448.49 564.27 441.6 559.63 434.3 555.6 426.62 552.34 418.94 550.29 411.07 549.19 403.07 549 395.07 550.02 386.93 551.84 378.68 554.34 370.44 557.8 362.09 561.7 353.64 565.88 345.21 570.62 336.68 575.35 328.11 579.89 319.57 584.59 310.99 588.84 302.43 592.52 293.95 596.02 285.53 598.75 277.24 600.66 269.11 602.16 261.18 602.74 253.53 602.41 246.15 601.58 239.15 599.83 232.61 597.21 226.46 594.1 220.85 590.19 215.88 585.56 211.37 580.52 207.56 574.85 204.47 568.65 201.87 562.15 200 555.22 198.86 547.95 198.12 540.5 198.02 532.79 198.54 524.92 199.24 516.95 200.39 508.87 201.91 500.77 203.32 492.62 204.9 484.48 206.56 476.4 207.79 468.32 208.92 460.31 209.86 452.42 210.15 444.54 210.14 436.78 209.81 429.16 208.78 421.55 207.48 414.24 205.99 407.25 203.99 400.23 201.97 393.51 200.03 387.05 197.89 380.55 196.04 374.3 194.59 368.27 193.25 362.16 192.5 356.24 192.38 350.49 192.64 344.62 193.65 338.88 195.43 333.24 197.71 327.45 200.78 321.72 204.61 316.02 208.95 310.13 214 304.24 219.67 298.35 225.78 292.22 232.43 286.06 239.52 279.86 246.91 273.44 254.64 266.97 262.62 260.47 270.77 253.79 279.08 247.09 287.48 240.43 295.95 233.66 304.44 226.97 312.93 220.42 321.41 213.88 329.85 207.57 338.23 201.57 346.58 195.71 354.86 190.26 363.07 185.3 371.25 180.65 379.37 176.59 387.43 173.2 395.48 170.25 403.48 168.06 411.43 166.67 419.37 165.82 427.27 165.81 435.11 166.69" stroke-dasharray="2 1" transform="rotate(28.28, 400, 400)" opacity="0.73"></path><path d="M428.61 176.84C435.92 178.2 442.89 180.32 449.49 183.14 456.06 186.33 462.23 190.13 467.96 194.45 473.62 199 478.79 203.96 483.43 209.27 487.96 214.64 491.91 220.25 495.25 226.03 498.43 231.73 500.97 237.53 502.87 243.37 505.17 251.86 506.68 268.34 506.18 276.26 505.57 283.72 504.33 298.05 504.53 305 506.39 311.63 515.34 324.95 523.07 331.78 529.77 336.23 537.52 340.86 546.27 345.7 555.99 350.43 566.47 355.4 577.47 360.63 588.85 365.78 600.26 371.22 611.34 376.96 621.94 382.66 631.58 388.67 639.9 395.01 646.84 401.34 651.9 408.02 654.82 415.05 655.8 422.08 654.47 429.32 650.94 436.73 645.68 444.16 638.59 451.78 629.96 459.56 620.28 467.34 609.65 475.28 598.42 483.34 586.98 491.39 575.52 499.53 564.33 507.72 553.66 515.86 543.65 523.99 534.45 532.06 526.21 540.02 518.93 547.83 512.61 555.42 507.36 562.81 503 569.88 499.43 576.53 495.74 585.77 491.69 600.61 490.54 605.82 485.56 607.78 474.06 593.42 468.33 585.63 464.23 580.27 459.58 574.6 454.39 568.78 449.14 563.37 443.39 558.09 437.17 553.08 430.92 548.88 424.23 545.21 417.11 542.19 409.99 540.25 402.63 539.12 395.09 538.78 387.56 539.52 379.86 540.95 372.01 542.99 364.19 545.89 356.24 549.2 348.19 552.78 340.19 556.91 332.11 561.06 323.99 565.1 315.94 569.35 307.89 573.25 299.89 576.71 292.02 580.07 284.25 582.8 276.65 584.85 269.25 586.6 262.1 587.57 255.27 587.75 245.66 587.01 229.28 580.94 222.79 575.78 217.58 569.43 211.12 553.52 209.85 544.28 209.54 537.8 209.8 531.03 210.59 524.03 211.48 516.92 212.75 509.65 214.34 502.27 215.76 494.84 217.31 487.36 218.91 479.87 220.08 472.36 221.12 464.87 221.99 457.43 222.23 449.99 222.18 442.61 221.84 435.31 220.82 428.01 219.56 420.97 218.11 414.17 216.15 407.35 214.17 400.76 212.24 394.39 210.09 387.98 208.18 381.77 206.61 375.73 205.09 369.62 204.09 363.66 203.64 357.82 203.5 351.88 204.03 346.04 205.26 340.26 206.92 334.35 209.32 328.47 212.42 322.63 216 316.61 220.26 310.58 225.13 304.54 230.43 298.32 236.28 292.07 242.59 285.79 249.23 279.33 256.25 272.85 263.56 266.37 271.09 259.74 278.84 253.14 286.72 246.61 294.73 240 302.81 233.51 310.92 227.2 319.09 220.92 327.24 214.9 335.35 209.19 343.47 203.65 351.53 198.52 359.5 193.87 367.48 189.52 375.37 185.75 383.17 182.62 390.96 179.9 398.66 177.9 406.24 176.66 413.82 175.91 421.29 175.96 428.6 176.83" stroke-dasharray="4 1" transform="rotate(32.32, 400, 400)" opacity="0.70"></path><path d="M419.59 186.98C426.35 188.3 432.73 190.33 438.7 193 444.64 196.03 450.15 199.63 455.19 203.74 460.18 208.06 464.68 212.79 468.66 217.86 472.55 223.02 475.91 228.42 478.7 234.01 481.41 239.57 483.56 245.24 485.17 250.98 487.25 259.39 489.2 275.93 489.41 283.98 489.81 291.64 491.42 306.46 493.33 313.67 495.5 318.27 498.28 322.9 501.79 327.58 506.26 332.09 511.58 336.69 517.79 341.39 524.99 345.96 533.05 350.68 541.89 355.55 551.48 360.33 561.6 365.31 572.05 370.5 582.72 375.63 593.28 380.99 603.45 386.61 613.1 392.2 621.83 398.06 629.31 404.2 635.57 410.34 640.13 416.77 642.79 423.52 643.76 430.26 642.66 437.17 639.61 444.21 635.03 451.27 628.78 458.46 621.11 465.76 612.45 473.07 602.84 480.47 592.59 487.93 582.04 495.37 571.31 502.85 560.67 510.3 550.37 517.69 540.5 525.01 531.22 532.21 522.69 539.28 514.91 546.15 507.92 552.75 501.83 559.14 496.51 565.18 491.91 570.77 474.86 593.44 465.54 590.14 461.85 584.84 459.23 580.87 456.11 576.36 452.49 571.38 448.82 566.48 444.65 561.33 439.99 556.07 435.28 551.2 430.09 546.45 424.44 541.94 418.76 538.15 412.64 534.82 406.09 532.04 399.54 530.21 392.73 529.07 385.72 528.6 378.73 529.08 371.55 530.16 364.23 531.77 356.94 534.16 349.52 536.92 342.02 539.93 334.57 543.46 327.08 547.05 319.57 550.58 312.16 554.35 304.78 557.86 297.49 561.02 290.35 564.17 283.36 566.81 276.57 568.88 266.87 571.37 249.51 572.51 242.13 571.1 235.79 568.49 226.49 559.58 223.64 553.46 221.91 546.49 221.67 530.17 222.94 521.09 223.97 514.84 225.32 508.37 226.91 501.74 228.31 495.05 229.8 488.25 231.31 481.37 232.39 474.47 233.35 467.52 234.12 460.56 234.31 453.6 234.23 446.63 233.87 439.69 232.87 432.74 231.65 425.98 230.25 419.4 228.37 412.81 226.44 406.38 224.55 400.12 222.42 393.83 220.48 387.68 218.83 381.66 217.19 375.58 215.98 369.6 215.26 363.71 214.77 357.74 214.88 351.82 215.61 345.96 216.7 339.97 218.46 334.01 220.87 328.06 223.7 321.97 227.18 315.87 231.24 309.77 235.71 303.51 240.72 297.24 246.2 290.95 252.02 284.53 258.23 278.11 264.78 271.72 271.57 265.23 278.61 258.79 285.83 252.44 293.22 246.06 300.73 239.83 308.31 233.79 315.98 227.82 323.67 222.12 331.34 216.74 339.06 211.54 346.73 206.75 354.32 202.42 361.94 198.4 369.46 194.92 376.86 192.05 384.28 189.57 391.58 187.76 398.7 186.67 405.85 186.02 412.82 186.12 419.58 186.98" stroke-dasharray="4 7" transform="rotate(36.36, 400, 400)" opacity="0.66"></path><path d="M408.85 197.13C415.06 198.4 420.87 200.32 426.26 202.86 431.64 205.71 436.57 209.11 441.07 212.98 449.93 221.33 456.9 231.1 461.95 241.81 466.85 252.49 470.02 263.61 471.78 274.86 474.05 285.49 475.8 296.09 477.77 306.55 481.77 316.25 487.4 325.96 495.39 335.72 506.68 344.88 520.9 354.37 537.73 364.29 556.74 373.86 576.54 384.12 595.36 395.16 604.09 400.63 611.94 406.33 618.65 412.27 624.25 418.19 628.35 424.37 630.76 430.8 631.7 437.24 630.82 443.78 628.21 450.42 624.25 457.05 618.79 463.78 612.03 470.56 595.91 484.1 576.9 497.76 556.96 511.19 537.67 524.34 519.87 536.89 504.4 548.35 491.76 559.01 481.64 568.01 473.66 574.82 465.68 581.63 453.53 578.98 446.12 569.74 440.89 562.23 434.06 553.23 425.52 543.48 421.21 539.13 416.47 534.89 411.3 530.85 406.12 527.46 400.53 524.44 394.54 521.89 388.54 520.17 382.31 519.02 375.88 518.46 369.46 518.71 362.87 519.48 356.16 520.7 342.84 525.19 329.16 530.65 315.5 536.36 302.29 543.11 289.43 548.81 277.42 552.89 266.29 556.51 256.45 557.81 248.38 556.69 241.58 554.56 236.81 550.02 234.3 543.36 232.86 535.87 233.36 526.64 235.56 516.09 237.72 505.12 240.61 493.22 243.75 480.74 244.73 474.46 245.58 468.08 246.26 461.62 246.39 455.16 246.27 448.64 245.9 442.07 244.93 435.51 243.76 429.06 242.42 422.73 240.62 416.39 238.77 410.17 236.94 404.05 232.6 391.74 229.2 379.75 227.23 368.05 225.9 356.07 226.81 344.16 230.02 332.31 234.66 320.05 241.64 307.71 250.58 295.39 260.8 282.72 272.53 270.16 285.26 257.97 298.71 245.83 312.71 234.45 326.8 224.24 341.19 214.79 355.45 207.06 369.22 201.5 376.16 199.25 382.95 197.63 389.57 196.68 396.2 196.13 402.64 196.28 408.84 197.13" stroke-dasharray="9 9" transform="rotate(40.400000000000006, 400, 400)" opacity="0.62"></path><path d="M397.34 207.28C408.66 210.07 418.43 215.17 426.58 222.18 434.65 230.03 441.06 239.26 445.89 249.44 450.76 259.69 454.35 270.46 457.01 281.43 460.4 291.96 463.69 302.54 467.55 313.03 473.34 322.92 480.76 332.8 490.3 342.71 502.56 352.11 517.17 361.75 533.7 371.69 551.73 381.33 570.03 391.51 587.08 402.28 602.11 412.94 613.16 424.36 618.74 436.54 619.26 448.73 613.59 461.15 602.73 473.61 588.52 486.02 571.43 498.32 553.09 510.2 534.89 521.77 517.53 532.58 501.84 542.2 488.31 551.07 476.87 558.29 467.33 563.44 459.85 567.42 453.5 569.01 447.74 568.02 443.02 565.88 438 561.37 432.24 554.72 426.74 547.83 420.05 539.72 412 531.02 403.92 523.72 394.4 517.09 383.46 511.74 372.53 509.25 360.82 508.66 348.67 509.76 336.69 513.32 324.49 517.75 312.44 522.46 300.84 528.25 289.74 533.25 279.57 536.96 266.19 541.29 248.83 538.76 245.69 531.78 245.04 525.8 246.04 518.12 248.45 509.07 250.62 499.65 253.35 489.17 256.22 477.93 257.51 466.58 258.14 454.66 257.92 442.35 255.55 430.03 252.59 417.92 249.42 406.08 245.21 394.17 241.78 382.41 239.54 370.81 237.71 359.01 237.8 347.2 239.91 335.42 243.21 323.35 248.65 311.23 255.94 299.18 264.4 286.93 274.38 274.87 285.43 263.26 297.23 251.82 309.7 241.17 322.39 231.71 335.45 223.02 348.46 215.97 361.07 210.96 373.82 207.29 386.01 205.99 397.33 207.28" stroke-dasharray="9 3" transform="rotate(44.44, 400, 400)" opacity="0.58"></path><path d="M386.06 217.43C396.33 220.06 405.25 224.82 412.79 231.35 420.29 238.67 426.45 247.32 431.41 256.91 436.53 266.66 440.8 276.97 444.57 287.57 449.16 297.87 453.98 308.28 459.55 318.68 466.86 328.6 475.71 338.54 486.36 348.48 499.17 358.01 513.78 367.71 529.71 377.6 546.56 387.24 563.3 397.27 578.6 407.72 591.98 418.08 601.75 429 606.71 440.45 607.34 451.91 602.57 463.38 593.2 474.68 580.8 485.93 565.62 496.87 548.99 507.21 532.1 517.26 515.51 526.42 500.04 534.33 486.11 541.59 473.8 547.25 463.12 550.97 454.16 553.76 446.35 554.42 439.29 552.84 433.24 550.43 427.24 546.01 420.9 539.83 414.91 533.6 408.13 526.38 400.37 518.69 392.64 512.29 383.8 506.43 373.84 501.59 363.89 499.22 353.38 498.38 342.61 498.96 331.99 501.68 321.32 505.15 310.96 508.91 301.01 513.73 291.67 517.98 283.31 521.22 265.97 524.85 258.39 511.07 261.54 500.2 263.63 492.18 266.14 483.02 268.7 472.98 269.77 462.83 270.24 451.95 269.95 440.49 267.7 429.04 264.93 417.57 261.96 406.2 257.95 394.79 254.57 383.38 252.17 372.03 249.96 360.54 249.39 348.99 250.58 337.46 252.68 325.74 256.71 314 262.45 302.39 269.19 290.71 277.42 279.27 286.76 268.36 296.81 257.7 307.62 247.86 318.78 239.19 330.32 231.28 341.94 224.92 353.27 220.46 364.76 217.21 375.79 216.14 386.06 217.43" stroke-dasharray="5 6" transform="rotate(48.48, 400, 400)" opacity="0.54"></path><path d="M376 227.58C385.29 230.05 393.51 234.46 400.63 240.49 407.76 247.27 413.91 255.3 419.21 264.25 424.77 273.42 429.86 283.19 434.78 293.3 440.52 303.25 446.71 313.37 453.72 323.52 462.22 333.33 472.08 343.19 483.4 353.02 496.35 362.55 510.61 372.18 525.67 381.92 541.21 391.46 556.32 401.26 569.92 411.31 581.72 421.3 590.3 431.66 594.68 442.33 595.4 453 591.44 463.49 583.44 473.63 572.76 483.71 559.44 493.31 544.57 502.19 529.17 510.8 513.65 518.44 498.76 524.83 484.88 530.67 472.19 534.99 460.82 537.56 450.79 539.4 441.83 539.37 433.69 537.43 426.47 534.91 419.53 530.73 412.58 525.09 406.01 519.56 399.01 513.21 391.41 506.49 383.88 500.92 375.58 495.78 366.51 491.44 357.45 489.19 348.09 488.17 338.68 488.29 329.4 490.25 320.25 492.85 311.54 495.72 303.19 499.61 295.53 503.07 288.87 505.76 275.7 509.38 271.63 498.81 274.82 489.68 276.74 482.89 278.96 474.95 281.19 466.03 282.02 457.02 282.32 447.17 281.98 436.61 279.86 426.05 277.31 415.3 274.56 404.5 270.81 393.69 267.56 382.76 265.1 371.81 262.66 360.78 261.59 349.66 262.01 338.55 263.11 327.35 265.89 316.15 270.22 305.13 275.37 294.15 281.93 283.46 289.6 273.34 297.9 263.53 307.01 254.55 316.59 246.7 326.53 239.58 336.67 233.91 346.69 229.99 356.84 227.16 366.7 226.29 376 227.58" stroke-dasharray="8 4" transform="rotate(52.52, 400, 400)" opacity="0.51"></path><path d="M368.05 237.73C376.45 240.04 384.08 244.09 390.94 249.61 397.84 255.82 404.11 263.21 409.87 271.47 415.92 280 421.81 289.15 427.79 298.68 434.51 308.14 441.81 317.83 449.9 327.6 459.21 337.15 469.64 346.75 481.2 356.34 493.91 365.71 507.5 375.15 521.48 384.61 535.59 393.93 549.08 403.4 561.03 412.97 571.34 422.51 578.81 432.23 582.66 442.08 583.44 451.92 580.2 461.42 573.46 470.42 564.38 479.36 552.86 487.69 539.76 495.21 525.97 502.5 511.74 508.79 497.76 513.86 484.35 518.49 471.73 521.72 460.11 523.37 449.49 524.49 439.77 524 430.87 521.9 422.73 519.43 415.01 515.58 407.53 510.55 400.4 505.72 393.16 500.23 385.66 494.42 378.24 489.64 370.4 485.17 362.12 481.3 353.85 479.17 345.56 478.01 337.44 477.75 329.4 479.05 321.68 480.87 314.52 482.92 287.77 488.86 290.85 468.64 293.67 457.34 294.26 449.39 294.4 440.54 294 430.89 292.03 421.24 289.7 411.28 287.2 401.15 283.76 391.03 280.7 380.71 278.29 370.32 275.75 359.89 274.34 349.36 274.18 338.83 274.47 328.3 276.21 317.8 279.32 307.52 283.06 297.35 288.1 287.51 294.2 278.26 300.83 269.37 308.3 261.28 316.34 254.27 324.68 247.94 333.35 242.95 342.07 239.55 350.91 237.12 359.64 236.46 368.05 237.73" stroke-dasharray="0 5" transform="rotate(56.56, 400, 400)" opacity="0.47"></path><path d="M362.9 247.88C370.49 250.01 377.63 253.7 384.32 258.72 391.06 264.35 397.48 271.06 403.69 278.61 410.18 286.44 416.76 294.89 423.57 303.74 431.04 312.61 439.1 321.75 447.87 330.99 457.57 340.12 468.16 349.33 479.55 358.52 491.69 367.58 504.35 376.66 517.07 385.72 529.7 394.69 541.56 403.7 551.93 412.71 560.85 421.7 567.29 430.73 570.63 439.72 571.45 448.7 568.85 457.2 563.25 465.11 555.67 472.96 545.85 480.11 534.51 486.41 522.39 492.52 509.63 497.64 496.8 501.6 484.23 505.24 472.09 507.6 460.65 508.59 449.88 509.2 439.84 508.45 430.53 506.35 421.82 504.05 413.58 500.62 405.73 496.23 398.2 492.1 390.77 487.43 383.37 482.48 376.06 478.42 368.62 474.57 361.06 471.15 353.49 469.17 346.17 467.91 339.2 467.33 329.07 468.62 312.02 473.63 305.73 476.07 298.9 474.93 303.86 457.1 306.13 447.22 306.49 440.24 306.48 432.35 306.03 423.62 304.21 414.88 302.12 405.77 299.89 396.41 296.78 387.07 293.98 377.48 291.71 367.79 289.2 358.1 287.6 348.29 287.04 338.51 286.73 328.78 287.65 319.11 289.75 309.69 292.31 300.42 296.02 291.52 300.74 283.21 305.86 275.26 311.83 268.08 318.42 261.92 325.26 256.38 332.54 252.06 340.04 249.17 347.62 247.12 355.3 246.64 362.9 247.88" stroke-dasharray="1 9" transform="rotate(60.599999999999994, 400, 400)" opacity="0.43"></path><path d="M361 258.02C367.87 259.98 374.58 263.31 381.1 267.81 387.68 272.85 394.22 278.88 400.76 285.68 407.56 292.77 414.59 300.46 421.96 308.56 429.84 316.73 438.28 325.19 447.32 333.79 457 342.35 467.35 351.01 478.21 359.66 489.5 368.24 501.03 376.83 512.38 385.35 523.47 393.83 533.74 402.28 542.63 410.64 550.24 418.98 555.73 427.26 558.6 435.37 559.43 443.48 557.4 451.01 552.83 457.88 546.6 464.7 538.39 470.78 528.74 476.02 518.31 481.1 507.12 485.24 495.65 488.31 484.19 491.16 472.89 492.87 462.02 493.4 451.55 493.7 441.61 492.85 432.28 490.89 423.37 488.86 414.93 485.9 406.95 482.17 399.23 478.72 391.76 474.82 384.53 470.67 377.37 467.28 370.32 464 363.4 461 356.49 459.17 350.01 457.85 344.04 457.03 314.35 459.61 316.83 444.7 318.56 436.07 318.69 429.96 318.54 422.97 318.06 415.16 316.4 407.34 314.54 399.11 312.6 390.6 309.85 382.11 307.37 373.36 305.3 364.48 302.93 355.65 301.3 346.7 300.5 337.79 299.81 328.97 300.12 320.24 301.46 311.77 303.07 303.49 305.7 295.59 309.26 288.25 313.09 281.27 317.75 275.02 323.06 269.69 328.56 264.92 334.58 261.24 340.97 258.83 347.41 257.14 354.13 256.83 361 258.02" stroke-dasharray="2 4" transform="rotate(64.64, 400, 400)" opacity="0.39"></path><path d="M362.53 268.17C368.74 269.95 375.02 272.91 381.33 276.9 387.71 281.35 394.23 286.69 400.92 292.72 407.81 299.04 415.03 305.92 422.6 313.19 430.55 320.58 438.98 328.27 447.87 336.11 457.17 343.97 466.93 351.95 476.95 359.92 487.17 367.87 497.41 375.83 507.31 383.69 516.88 391.54 525.62 399.31 533.1 406.93 539.52 414.55 544.13 422.02 546.58 429.24 547.4 436.46 545.86 443.05 542.2 448.97 537.19 454.84 530.46 459.97 522.43 464.3 513.66 468.51 504.09 471.85 494.1 474.24 483.96 476.48 473.77 477.74 463.79 478.01 454 478.15 444.55 477.33 435.57 475.62 426.86 473.92 418.56 471.46 410.73 468.38 403.07 465.59 395.76 462.41 388.8 458.99 381.91 456.21 375.28 453.46 368.96 450.85 359.78 448.51 344.43 446.73 338.43 446.88 327.22 445.49 329.75 431.85 330.94 424.32 330.87 418.99 330.59 412.85 330.09 405.94 328.59 399.03 326.98 391.7 325.32 384.09 322.96 376.52 320.82 368.68 319.02 360.73 316.89 352.83 315.34 344.85 314.48 336.92 313.58 329.09 313.52 321.37 314.31 313.93 315.24 306.68 317.05 299.8 319.68 293.47 322.48 287.46 326.05 282.11 330.3 277.61 337.12 272.04 353.38 267.11 362.53 268.17" stroke-dasharray="0 8" transform="rotate(68.68, 400, 400)" opacity="0.35"></path><path d="M367.34 278.32C378.52 281.99 390.75 289.52 403.78 299.76 417.41 311 432.66 324.16 449.13 338.08 466.5 352.21 484.71 366.78 501.82 380.96 517.47 395.15 529.25 408.99 534.55 421.64 534.87 434.29 527.83 444.4 515.54 451.6 500.63 458.52 483.2 462.23 465.53 462.62 448.03 462.78 431.35 460.03 416.41 454.9 401.94 450.85 388.72 445.86 377.25 440.7 365.77 438.44 356.86 436.84 350.64 435.67 342.69 436.54 339.42 432.19 342 424.13 342.17 417.77 342.32 408.49 342.11 396.42 338.69 384.35 335.38 370.83 332.81 356.87 328.9 343.13 327.2 329.24 328.12 316.31 329.18 304.12 333.22 293.52 339.96 285.69 346.9 279.45 356.15 276.71 367.34 278.32" stroke-dasharray="0 8" transform="rotate(72.72, 400, 400)" opacity="0.32"></path><path d="M375.02 288.47C385 291.65 396.39 298.08 408.75 306.82 421.51 316.43 435.71 327.76 450.67 339.84 466.01 352.2 481.62 365 495.85 377.45 508.71 389.96 518.24 402.06 522.52 412.96 523.07 423.85 517.72 432.37 508.03 438.29 496.16 444.05 481.81 447.09 466.82 447.41 451.63 447.71 436.76 445.68 423.22 441.74 409.93 438.73 397.83 434.83 387.52 430.55 373.33 427.51 357.31 424.32 355.03 421.81 353.77 418.55 354.66 401.47 354.14 387.08 351.21 376.71 348.57 365.14 346.61 353.24 343.42 341.56 341.98 329.85 342.66 319.07 343.19 308.94 346.22 300.26 351.7 293.98 357.22 288.97 365.03 286.91 375.02 288.47" stroke-dasharray="5 0" transform="rotate(76.76, 400, 400)" opacity="0.28"></path><path d="M384.89 298.62C393.67 301.32 403.92 306.67 415.13 313.93 426.55 321.91 439.12 331.38 452.06 341.55 465.05 352 477.93 362.89 489.37 373.48 499.61 384.16 507.12 394.44 510.49 403.62 511.18 412.8 507.28 419.89 499.9 424.77 490.81 429.58 479.46 432.17 467.27 432.58 454.7 433.09 442.05 431.77 430.31 428.92 418.67 426.82 407.98 423.88 398.89 420.4 386.41 417.5 372.18 412.84 369.72 409.62 367.87 405.92 366.99 390.59 366.17 378.39 363.73 369.66 361.72 360.02 360.37 350.2 357.95 340.57 356.94 331.02 357.62 322.35 358 314.21 360.44 307.34 364.99 302.49 369.48 298.61 376.11 297.14 384.89 298.62" stroke-dasharray="9 8" transform="rotate(80.80000000000001, 400, 400)" opacity="0.24"></path><path d="M396.08 308.77C403.6 310.99 412.44 315.3 422.07 321.13 431.79 327.51 442.31 335.13 452.92 343.36 463.39 351.84 473.53 360.73 482.33 369.4 490.19 378.16 495.9 386.59 498.47 394.1 499.21 401.61 496.51 407.41 491.13 411.43 484.52 415.43 475.98 417.7 466.54 418.29 456.69 419.02 446.52 418.35 436.85 416.44 427.17 415.11 418.15 413 410.36 410.25 399.62 407.6 386.78 402.11 383.97 398.48 381.56 394.52 379.22 380.88 378.2 370.79 376.23 363.62 374.8 355.86 374.01 348.07 372.38 340.43 371.88 332.97 372.71 326.29 374.26 317.41 385.76 307.9 396.08 308.77" stroke-dasharray="2 3" transform="rotate(84.84, 400, 400)" opacity="0.20"></path><path d="M407.62 318.92C420 322.96 436.49 333.01 452.86 345.44 468.5 358.66 481.61 373.08 486.44 384.88 486.73 396.68 477.7 403.28 464.35 404.7 449.67 406.65 433.69 404.89 420.92 400.11 408.15 398.01 400.53 394 397.44 388.45 392.83 383.95 390.46 375.98 390.22 364.65 386.33 353.32 385.23 340.97 387.57 331.01 388.76 322.12 395.24 317.14 407.62 318.92" stroke-dasharray="7 10" transform="rotate(88.88, 400, 400)" opacity="0.16"></path><path d="M418.49 329.07C428.01 331.96 440.1 339.08 451.58 347.95 462.46 357.33 471.27 367.71 474.41 376.42 475.05 385.12 469.41 390.31 460.52 391.94 450.74 393.94 439.41 393.24 429.64 389.96 419.87 388.16 413.3 384.46 409.85 379.55 405.45 375.26 402.79 368.7 402.25 360.28 399.58 351.86 399.43 343.24 401.87 336.62 403.53 330.61 408.97 327.48 418.49 329.07" stroke-dasharray="6 0" transform="rotate(92.92, 400, 400)" opacity="0.13"></path><path d="M427.74 339.21C440.71 343.44 457.79 357.7 462.39 369.14 462.66 380.57 448.97 384.41 435.77 379.81 422.55 377.79 414.53 369.08 414.28 357.91 410.15 346.73 414.76 337.36 427.74 339.21" stroke-dasharray="8 5" transform="rotate(96.96, 400, 400)" opacity="0.09"></path></g></svg>